<svg width="165" height="34" viewBox="0 0 165 34" fill="none" xmlns="http://www.w3.org/2000/svg">
<path d="M78.8916 3.85179C78.8916 3.89031 78.8916 3.96735 78.8916 4.00587C78.8916 4.04439 78.8916 4.0829 78.8916 4.12142C78.8916 4.15994 78.8916 4.15995 78.8531 4.19846C78.8531 4.23698 78.8146 4.23698 78.7761 4.2755C78.7375 4.31402 78.6605 4.35255 78.5835 4.42958C78.5064 4.50662 78.3909 4.54514 78.2753 4.58366C78.1597 4.62218 78.0442 4.6607 77.8901 4.69922C77.736 4.73774 77.6205 4.73774 77.4664 4.73774C77.1582 4.73774 76.8886 4.69922 76.6575 4.58366C76.4263 4.4681 76.2337 4.35254 76.0797 4.15995C75.9256 3.96735 75.81 3.73623 75.733 3.46659C75.656 3.19695 75.6174 2.85027 75.6174 2.50359C75.6174 2.07987 75.656 1.73319 75.7715 1.42503C75.8871 1.11687 76.0026 0.885754 76.1952 0.693155C76.3878 0.500555 76.5804 0.346476 76.8116 0.269436C77.0427 0.192396 77.3123 0.115356 77.5819 0.115356C77.6975 0.115356 77.8516 0.115356 77.9671 0.153876C78.0827 0.192396 78.1983 0.230916 78.3138 0.269436C78.4294 0.307956 78.5064 0.346476 78.5835 0.423515C78.6605 0.462035 78.7375 0.539075 78.7761 0.577595C78.8146 0.616115 78.8531 0.654635 78.8531 0.654635C78.8531 0.693155 78.8916 0.693154 78.8916 0.731674C78.8916 0.770194 78.8916 0.808714 78.8916 0.847234C78.8916 0.885754 78.8916 0.924274 78.8916 1.00131C78.8916 1.11687 78.8916 1.19391 78.8531 1.27095C78.8146 1.30947 78.7761 1.34799 78.7375 1.34799C78.699 1.34799 78.622 1.30947 78.5835 1.27095C78.5064 1.23243 78.4294 1.15539 78.3523 1.11687C78.2753 1.03983 78.1597 1.00131 78.0057 0.962794C77.8901 0.924274 77.6975 0.885754 77.5434 0.885754C77.1582 0.885754 76.8886 1.03983 76.696 1.30947C76.5034 1.57911 76.3878 2.00283 76.3878 2.54211C76.3878 2.81175 76.4263 3.04287 76.4649 3.27399C76.5034 3.46659 76.5804 3.65919 76.696 3.77475C76.8115 3.92883 76.9271 4.00587 77.0812 4.08291C77.2353 4.15995 77.3893 4.19846 77.5819 4.19846C77.7745 4.19846 77.9286 4.15994 78.0442 4.12142C78.1597 4.0829 78.3138 4.00586 78.3909 3.92883C78.5064 3.85179 78.5835 3.81327 78.622 3.73623C78.699 3.69771 78.7375 3.65919 78.7761 3.65919C78.8146 3.65919 78.8146 3.65919 78.8146 3.65919C78.8146 3.65919 78.8531 3.69771 78.8531 3.73623C78.8531 3.77475 78.8531 3.81327 78.8916 3.85179C78.8916 3.77475 78.8916 3.73623 78.8916 3.85179Z" fill="white"/>
<path d="M83.5138 2.19489C83.5138 2.31045 83.4753 2.38749 83.4368 2.46453C83.3597 2.50305 83.3212 2.54157 83.2442 2.54157H80.4707C80.4707 2.77269 80.5092 3.0038 80.5478 3.15788C80.5863 3.35048 80.6633 3.50456 80.7789 3.65864C80.8944 3.81272 81.0485 3.88976 81.2026 3.9668C81.3952 4.04384 81.5878 4.08236 81.8574 4.08236C82.05 4.08236 82.2426 4.08236 82.3967 4.04384C82.5508 4.00532 82.7049 3.9668 82.8204 3.92828C82.936 3.88976 83.013 3.85124 83.0901 3.81272C83.1671 3.7742 83.2056 3.7742 83.2442 3.7742C83.2827 3.7742 83.2827 3.7742 83.3212 3.7742L83.3597 3.81272C83.3597 3.85124 83.3597 3.85124 83.3982 3.88976C83.3982 3.92828 83.3982 3.9668 83.3982 4.04384C83.3982 4.08236 83.3982 4.12088 83.3982 4.1594C83.3982 4.19792 83.3982 4.19792 83.3982 4.23644C83.3982 4.27496 83.3982 4.27496 83.3597 4.31348C83.3212 4.352 83.3212 4.352 83.3212 4.352C83.3212 4.352 83.2442 4.39052 83.1671 4.42904C83.0901 4.46756 82.9745 4.50608 82.8204 4.5446C82.6664 4.58312 82.5123 4.62164 82.3582 4.66016C82.1656 4.69868 81.973 4.69868 81.7804 4.69868C81.4337 4.69868 81.1256 4.66016 80.8559 4.5446C80.5863 4.42904 80.3552 4.31348 80.2011 4.12088C80.0085 3.92828 79.8929 3.69716 79.8159 3.389C79.7388 3.11937 79.6618 2.77269 79.6618 2.38749C79.6618 2.04081 79.7003 1.69413 79.8159 1.42449C79.8929 1.11633 80.047 0.885212 80.2396 0.692612C80.4322 0.500013 80.6248 0.345933 80.8944 0.230373C81.1641 0.114814 81.4337 0.0762939 81.7419 0.0762939C82.0886 0.0762939 82.3582 0.114814 82.5893 0.230373C82.8204 0.345933 83.013 0.461493 83.1671 0.654092C83.3212 0.846692 83.4368 1.03929 83.5138 1.27041C83.5908 1.50153 83.6294 1.77117 83.6294 2.04081V2.19489H83.5138ZM82.7434 1.96377C82.7434 1.54005 82.6664 1.23189 82.4738 1.00077C82.2812 0.769652 82.0115 0.654092 81.6263 0.654092C81.4337 0.654092 81.2796 0.692612 81.1256 0.769652C80.9715 0.846691 80.8559 0.923732 80.7789 1.03929C80.6633 1.15485 80.5863 1.30893 80.5478 1.46301C80.5092 1.61709 80.4707 1.77117 80.4707 1.96377H82.7434Z" fill="white"/>
<path d="M88.5983 2.31174C88.5983 2.69694 88.5598 3.00509 88.4827 3.31325C88.4057 3.62141 88.2901 3.85253 88.1361 4.04513C87.982 4.23773 87.7894 4.39181 87.5583 4.50737C87.3271 4.62293 87.0575 4.66145 86.7879 4.66145C86.6723 4.66145 86.5567 4.66145 86.4412 4.62293C86.3256 4.58441 86.2486 4.54589 86.133 4.50737C86.0175 4.46885 85.9404 4.39181 85.8249 4.31477C85.7093 4.23773 85.6323 4.12217 85.5167 4.04513V6.16373C85.5167 6.20225 85.5167 6.20225 85.5167 6.24077C85.5167 6.27928 85.4782 6.27929 85.4397 6.27929C85.4011 6.27929 85.3626 6.31781 85.3241 6.31781C85.2856 6.31781 85.2085 6.31781 85.1315 6.31781C85.0545 6.31781 84.9774 6.31781 84.9389 6.31781C84.9004 6.31781 84.8619 6.31781 84.8234 6.27929C84.7848 6.27929 84.7848 6.24077 84.7463 6.24077C84.7078 6.24077 84.7463 6.20225 84.7463 6.16373V0.270182C84.7463 0.231662 84.7463 0.231662 84.7463 0.193142L84.7848 0.154622C84.8233 0.154622 84.8619 0.116103 84.9004 0.116103C84.9389 0.116103 85.0159 0.116103 85.0545 0.116103C85.1315 0.116103 85.17 0.116103 85.2086 0.116103C85.2471 0.116103 85.2856 0.116102 85.3241 0.154622C85.3626 0.154622 85.3626 0.193142 85.4011 0.193142C85.4011 0.193142 85.4011 0.231662 85.4011 0.270182V0.80946C85.5167 0.693901 85.6708 0.578341 85.7863 0.462781C85.9019 0.347222 86.0175 0.270182 86.133 0.231662C86.2486 0.154622 86.3641 0.116102 86.5182 0.0775825C86.6338 0.0390626 86.7879 0.0390625 86.9034 0.0390625C87.2116 0.0390625 87.4812 0.116102 87.6738 0.231662C87.9049 0.347222 88.059 0.501301 88.2131 0.73242C88.3672 0.92502 88.4442 1.19466 88.5213 1.4643C88.5598 1.69542 88.5983 2.00358 88.5983 2.31174ZM87.7894 2.38878C87.7894 2.15766 87.7894 1.96506 87.7509 1.77246C87.7123 1.57986 87.6738 1.38726 87.5968 1.23318C87.5197 1.0791 87.4042 0.96354 87.2886 0.84798C87.1345 0.770941 86.9805 0.693901 86.7879 0.693901C86.6723 0.693901 86.5953 0.6939 86.4797 0.73242C86.3641 0.77094 86.2871 0.809461 86.1715 0.8865C86.056 0.96354 85.9789 1.04058 85.8634 1.15614C85.7478 1.2717 85.6323 1.38726 85.5167 1.54134V3.23621C85.7478 3.50585 85.9404 3.69845 86.133 3.85253C86.3256 4.00661 86.5182 4.04513 86.7493 4.04513C86.9419 4.04513 87.096 4.00661 87.2501 3.89105C87.4042 3.81401 87.5197 3.65993 87.5968 3.50585C87.6738 3.35177 87.7509 3.15917 87.7894 2.96657C87.7894 2.77398 87.7894 2.58138 87.7894 2.38878Z" fill="white"/>
<path d="M93.2208 3.27473C93.2208 3.50585 93.1823 3.69845 93.1053 3.85253C93.0282 4.04513 92.9127 4.16069 92.7201 4.27625C92.566 4.39181 92.3349 4.46885 92.1037 4.54589C91.8726 4.62293 91.5645 4.62293 91.2563 4.62293C91.1407 4.62293 91.0637 4.62293 90.9481 4.62293C90.8326 4.62293 90.7555 4.62293 90.6785 4.62293C90.6015 4.62293 90.4859 4.62293 90.4089 4.62293C90.3318 4.62293 90.2163 4.62293 90.1392 4.58441C90.0237 4.58441 89.9081 4.54589 89.8696 4.46885C89.7925 4.39181 89.7925 4.31477 89.7925 4.16069V0.501302C89.7925 0.385742 89.8311 0.270182 89.8696 0.193142C89.9466 0.116102 90.0237 0.0775825 90.1392 0.0775825C90.2163 0.0775825 90.2933 0.0775824 90.4089 0.0390625C90.4859 0.0390625 90.6015 0.0390625 90.6785 0.0390625C90.7941 0.0390625 90.8711 0.0390625 90.9867 0.0390625C91.1022 0.0390625 91.1793 0.0390625 91.2948 0.0390625C91.603 0.0390625 91.8726 0.0775827 92.1037 0.116103C92.3349 0.154622 92.5275 0.231662 92.643 0.347221C92.7971 0.462781 92.9127 0.578341 92.9512 0.693901C93.0282 0.847981 93.0667 1.00206 93.0667 1.19466C93.0667 1.42578 92.9897 1.61838 92.8741 1.81098C92.7586 1.96506 92.566 2.11914 92.2963 2.15766C92.6045 2.2347 92.8356 2.35026 92.9897 2.54286C93.1438 2.73546 93.2208 2.96658 93.2208 3.27473ZM92.2963 1.31022C92.2963 1.19466 92.2963 1.11762 92.2578 1.04058C92.2193 0.96354 92.1423 0.8865 92.0652 0.84798C91.9882 0.809461 91.8726 0.73242 91.7185 0.73242C91.5645 0.6939 91.4104 0.693901 91.2178 0.693901C91.0637 0.693901 90.9481 0.693901 90.8326 0.693901C90.717 0.693901 90.6015 0.6939 90.5244 0.73242V2.0421H91.3333C91.6415 2.0421 91.9111 1.96506 92.0652 1.8495C92.2193 1.69542 92.2963 1.54134 92.2963 1.31022ZM92.4504 3.27473C92.4504 3.15917 92.4119 3.04361 92.3734 2.92805C92.3349 2.85101 92.2578 2.73546 92.1808 2.69694C92.1037 2.6199 91.9497 2.58138 91.7956 2.54286C91.6415 2.50434 91.4874 2.50434 91.2563 2.50434H90.4859V4.00661C90.5629 4.00661 90.6015 4.00661 90.6785 4.04513C90.7555 4.04513 90.7941 4.04513 90.8711 4.04513C90.9481 4.04513 90.9867 4.04513 91.0637 4.04513C91.1407 4.04513 91.1793 4.04513 91.2563 4.04513C91.4489 4.04513 91.6415 4.04513 91.7956 4.00661C91.9497 3.96809 92.0652 3.92957 92.1423 3.85253C92.2193 3.77549 92.2963 3.69845 92.3349 3.58289C92.4119 3.50585 92.4504 3.39029 92.4504 3.27473Z" fill="white"/>
<path d="M98.1513 4.46885C98.1513 4.50737 98.1513 4.50737 98.1513 4.54589C98.1513 4.58441 98.1128 4.58441 98.0743 4.58441C98.0357 4.58441 97.9972 4.62293 97.9587 4.62293C97.9202 4.62293 97.8431 4.62293 97.7661 4.62293C97.6891 4.62293 97.612 4.62293 97.5735 4.62293C97.535 4.62293 97.4965 4.62293 97.4579 4.58441C97.4194 4.58441 97.4194 4.54589 97.3809 4.54589C97.3424 4.54589 97.3809 4.50737 97.3809 4.46885V2.0421C97.3809 1.92654 97.3809 1.81098 97.3809 1.6569C97.3809 1.54134 97.3809 1.38726 97.4194 1.2717C97.3424 1.38726 97.2653 1.50282 97.1883 1.6569C97.1113 1.77246 97.0342 1.88802 96.9187 2.00358L95.1082 4.46885C95.0697 4.50737 95.0697 4.50737 95.0312 4.54589C94.9927 4.58441 94.9927 4.58441 94.9541 4.58441C94.9156 4.58441 94.8771 4.58441 94.8386 4.62293C94.8001 4.62293 94.7615 4.62293 94.6845 4.62293C94.6075 4.62293 94.5689 4.62293 94.5304 4.62293C94.4919 4.62293 94.4534 4.62293 94.4149 4.58441C94.3763 4.58441 94.3763 4.54589 94.3763 4.54589C94.3763 4.54589 94.3763 4.50737 94.3763 4.46885V0.231662C94.3763 0.193142 94.3763 0.193142 94.3763 0.154622C94.3763 0.116102 94.4149 0.116103 94.4534 0.116103C94.4919 0.116103 94.5304 0.0775825 94.5689 0.0775825C94.6075 0.0775825 94.6845 0.0775825 94.7615 0.0775825C94.9156 0.0775825 95.0312 0.0775827 95.0697 0.116103C95.1082 0.154622 95.1467 0.193142 95.1467 0.231662V2.69694C95.1467 2.81249 95.1467 2.92805 95.1467 3.04361C95.1467 3.15917 95.1467 3.27473 95.1082 3.39029C95.1853 3.27473 95.2623 3.15917 95.3393 3.04361C95.4164 2.92805 95.4934 2.81249 95.5705 2.69694L97.3809 0.193142C97.3809 0.154622 97.4194 0.154622 97.4579 0.116103C97.4965 0.116103 97.4965 0.0775825 97.535 0.0775825C97.5735 0.0775825 97.612 0.0775824 97.6505 0.0390625C97.6891 0.0390625 97.7276 0.0390625 97.8046 0.0390625C97.8817 0.0390625 97.9202 0.0390625 97.9587 0.0390625C97.9972 0.0390625 98.0357 0.0390626 98.0743 0.0775825C98.1128 0.0775825 98.1128 0.116103 98.1128 0.116103C98.1128 0.116103 98.1128 0.154622 98.1128 0.193142V4.46885H98.1513Z" fill="white"/>
<path d="M102.619 3.85179C102.619 3.89031 102.619 3.96735 102.619 4.00587C102.619 4.04439 102.619 4.0829 102.619 4.12142C102.619 4.15994 102.619 4.15995 102.581 4.19846C102.581 4.23698 102.542 4.23698 102.504 4.2755C102.465 4.31402 102.388 4.35255 102.311 4.42958C102.234 4.50662 102.119 4.54514 102.003 4.58366C101.888 4.62218 101.772 4.6607 101.618 4.69922C101.464 4.73774 101.348 4.73774 101.194 4.73774C100.886 4.73774 100.616 4.69922 100.385 4.58366C100.154 4.4681 99.9615 4.35254 99.8075 4.15995C99.6534 3.96735 99.5378 3.73623 99.4608 3.46659C99.3837 3.19695 99.3452 2.85027 99.3452 2.50359C99.3452 2.07987 99.3837 1.73319 99.4993 1.42503C99.6149 1.11687 99.7304 0.885754 99.923 0.693155C100.116 0.500555 100.308 0.346476 100.539 0.269436C100.77 0.192396 101.04 0.115356 101.31 0.115356C101.425 0.115356 101.579 0.115356 101.695 0.153876C101.81 0.192396 101.926 0.230916 102.042 0.269436C102.157 0.307956 102.234 0.346476 102.311 0.423515C102.388 0.462035 102.465 0.539075 102.504 0.577595C102.542 0.616115 102.581 0.654635 102.581 0.654635C102.581 0.693155 102.619 0.693154 102.619 0.731674C102.619 0.770194 102.619 0.808714 102.619 0.847234C102.619 0.885754 102.619 0.924274 102.619 1.00131C102.619 1.11687 102.619 1.19391 102.581 1.27095C102.542 1.30947 102.504 1.34799 102.465 1.34799C102.427 1.34799 102.35 1.30947 102.311 1.27095C102.234 1.23243 102.157 1.15539 102.08 1.11687C102.003 1.03983 101.888 1.00131 101.733 0.962794C101.618 0.924274 101.425 0.885754 101.271 0.885754C100.886 0.885754 100.616 1.03983 100.424 1.30947C100.231 1.57911 100.116 2.00283 100.116 2.54211C100.116 2.81175 100.154 3.04287 100.193 3.27399C100.231 3.46659 100.308 3.65919 100.424 3.77475C100.539 3.92883 100.655 4.00587 100.809 4.08291C100.963 4.15995 101.117 4.19846 101.31 4.19846C101.502 4.19846 101.656 4.15994 101.772 4.12142C101.888 4.0829 102.042 4.00586 102.119 3.92883C102.234 3.85179 102.311 3.81327 102.35 3.73623C102.427 3.69771 102.465 3.65919 102.504 3.65919C102.542 3.65919 102.542 3.65919 102.542 3.65919C102.542 3.65919 102.581 3.69771 102.581 3.73623C102.581 3.77475 102.581 3.81327 102.619 3.85179C102.619 3.77475 102.619 3.73623 102.619 3.85179Z" fill="white"/>
<path d="M105.894 6.0089C105.894 6.04742 105.894 6.04742 105.894 6.04742L105.855 6.08594C105.855 6.08594 105.778 6.08594 105.74 6.12446C105.701 6.12446 105.663 6.12446 105.586 6.12446C105.509 6.12446 105.47 6.12446 105.432 6.12446C105.393 6.12446 105.355 6.12446 105.316 6.08594C105.278 6.04742 105.278 6.04742 105.278 6.04742V6.0089V4.12143C105.278 4.04439 105.278 4.00587 105.316 3.96735C105.355 3.92883 105.393 3.92883 105.47 3.92883H105.778C105.894 3.77475 106.009 3.62067 106.086 3.42807C106.202 3.23547 106.279 3.00435 106.356 2.73471C106.433 2.46507 106.51 2.11839 106.587 1.73319C106.664 1.34799 106.741 0.885754 106.78 0.346475C106.78 0.307955 106.78 0.269436 106.818 0.230916C106.818 0.192396 106.857 0.153876 106.857 0.153876C106.895 0.115356 106.895 0.115356 106.934 0.115356C106.972 0.115356 107.011 0.115356 107.049 0.115356H109.399C109.476 0.115356 109.515 0.153876 109.592 0.192396C109.63 0.230916 109.669 0.307955 109.669 0.384995V3.92883H110.247C110.324 3.92883 110.362 3.92883 110.401 3.96735C110.439 4.00587 110.439 4.04439 110.439 4.12143V6.0089C110.439 6.04742 110.439 6.04742 110.439 6.04742L110.401 6.08594C110.362 6.08594 110.324 6.08594 110.285 6.12446C110.247 6.12446 110.208 6.12446 110.131 6.12446C110.054 6.12446 110.016 6.12446 109.977 6.12446C109.938 6.12446 109.9 6.12446 109.861 6.08594C109.823 6.08594 109.823 6.04742 109.823 6.04742V6.0089V4.58366H106.009V6.0089H105.894ZM108.783 0.770194H107.435C107.358 1.27095 107.319 1.69467 107.242 2.07987C107.165 2.42655 107.088 2.73471 107.011 2.96583C106.934 3.19695 106.857 3.38955 106.741 3.54363C106.664 3.69771 106.549 3.81327 106.472 3.92883H108.783V0.770194Z" fill="white"/>
<path d="M114.676 4.46865C114.676 4.50717 114.676 4.50717 114.676 4.54569C114.676 4.54569 114.638 4.58421 114.599 4.58421C114.561 4.58421 114.522 4.62273 114.484 4.62273C114.445 4.62273 114.368 4.62273 114.291 4.62273C114.214 4.62273 114.137 4.62273 114.099 4.62273C114.06 4.62273 114.022 4.62273 113.983 4.58421C113.945 4.58421 113.945 4.54569 113.906 4.54569C113.906 4.54569 113.906 4.50717 113.906 4.46865V0.770738H112.751C112.712 1.2715 112.635 1.69522 112.558 2.11893C112.481 2.50413 112.404 2.85081 112.327 3.12045C112.25 3.39009 112.134 3.65973 112.019 3.85233C111.903 4.04493 111.787 4.19901 111.672 4.31457C111.556 4.43013 111.402 4.50717 111.248 4.58421C111.094 4.62273 110.94 4.66125 110.747 4.66125C110.709 4.66125 110.709 4.66125 110.67 4.66125C110.632 4.66125 110.632 4.62273 110.632 4.62273C110.632 4.62273 110.593 4.54569 110.593 4.50717C110.593 4.46865 110.593 4.39161 110.593 4.31457C110.593 4.23753 110.593 4.16049 110.593 4.12197C110.593 4.08345 110.593 4.04493 110.632 4.00641C110.67 3.96789 110.67 3.96789 110.67 3.96789C110.67 3.96789 110.709 3.96789 110.747 3.96789C110.863 3.96789 110.94 3.92937 111.056 3.89085C111.133 3.85233 111.248 3.77529 111.325 3.65973C111.402 3.54417 111.479 3.39009 111.556 3.23601C111.633 3.04341 111.71 2.85081 111.749 2.58117C111.826 2.31153 111.865 2.00337 111.903 1.6567C111.942 1.31002 112.019 0.886297 112.057 0.424059C112.057 0.347019 112.096 0.269979 112.134 0.231459C112.173 0.192939 112.211 0.154419 112.288 0.154419H114.445C114.522 0.154419 114.561 0.192939 114.638 0.231459C114.676 0.269979 114.715 0.347019 114.715 0.424059V4.46865H114.676Z" fill="white"/>
<path d="M119.26 4.4681C119.26 4.50662 119.26 4.50663 119.26 4.54515C119.26 4.58366 119.222 4.58366 119.183 4.58366C119.145 4.58366 119.106 4.62219 119.068 4.62219C119.029 4.62219 118.952 4.62219 118.875 4.62219C118.798 4.62219 118.721 4.62219 118.683 4.62219C118.644 4.62219 118.605 4.62218 118.567 4.58366C118.528 4.58366 118.528 4.54515 118.49 4.54515C118.451 4.54515 118.49 4.50662 118.49 4.4681V2.69619H118.028C117.835 2.69619 117.681 2.69619 117.565 2.73471C117.45 2.77323 117.373 2.81175 117.257 2.88879C117.18 2.96583 117.103 3.04287 117.026 3.15843C116.949 3.27399 116.911 3.42807 116.834 3.58215L116.487 4.39106C116.487 4.42958 116.448 4.4681 116.448 4.50662C116.448 4.54514 116.41 4.54514 116.371 4.58366C116.333 4.58366 116.294 4.62219 116.217 4.62219C116.179 4.62219 116.102 4.62219 116.025 4.62219C115.948 4.62219 115.909 4.62219 115.871 4.62219C115.832 4.62219 115.794 4.62219 115.755 4.62219C115.717 4.62219 115.717 4.58366 115.678 4.58366C115.678 4.58366 115.639 4.54514 115.639 4.50662C115.639 4.4681 115.639 4.4681 115.678 4.39106C115.678 4.35254 115.717 4.27551 115.794 4.12143L116.14 3.31251C116.217 3.11991 116.333 2.92731 116.448 2.81175C116.564 2.65767 116.718 2.54211 116.872 2.50359C116.564 2.46507 116.333 2.31099 116.14 2.15691C115.948 1.96431 115.871 1.73319 115.871 1.42503C115.871 1.23243 115.909 1.03983 115.986 0.885754C116.063 0.731675 116.179 0.577595 116.371 0.462035C116.525 0.346476 116.757 0.269436 116.988 0.192396C117.219 0.115356 117.488 0.115356 117.797 0.115356C117.874 0.115356 117.951 0.115356 118.066 0.115356C118.182 0.115356 118.259 0.115356 118.374 0.115356C118.49 0.115356 118.567 0.115356 118.683 0.153876C118.798 0.153876 118.875 0.153876 118.952 0.192396C119.029 0.192396 119.106 0.230916 119.145 0.307956C119.183 0.384996 119.222 0.423515 119.222 0.539075V4.4681H119.26ZM118.49 0.693155C118.374 0.693155 118.259 0.654635 118.143 0.654635C118.028 0.654635 117.912 0.654635 117.797 0.654635C117.565 0.654635 117.411 0.654635 117.257 0.693155C117.103 0.731675 116.988 0.770195 116.911 0.847234C116.834 0.924274 116.757 1.00131 116.718 1.07835C116.679 1.15539 116.679 1.27095 116.679 1.38651C116.679 1.50207 116.718 1.61763 116.757 1.69467C116.795 1.77171 116.872 1.84875 116.949 1.92579C117.026 2.00283 117.142 2.04135 117.296 2.07987C117.45 2.11839 117.604 2.11839 117.874 2.11839H118.528V0.693155H118.49Z" fill="white"/>
<path d="M125.924 3.85179C125.924 3.89031 125.924 3.96735 125.924 4.00587C125.924 4.04439 125.924 4.0829 125.924 4.12142C125.924 4.15994 125.924 4.15995 125.885 4.19846C125.885 4.23698 125.847 4.23698 125.808 4.2755C125.77 4.31402 125.693 4.35255 125.616 4.42958C125.539 4.50662 125.423 4.54514 125.308 4.58366C125.192 4.62218 125.077 4.6607 124.922 4.69922C124.768 4.73774 124.653 4.73774 124.499 4.73774C124.191 4.73774 123.921 4.69922 123.69 4.58366C123.459 4.4681 123.266 4.35254 123.112 4.15995C122.958 3.96735 122.842 3.73623 122.765 3.46659C122.688 3.19695 122.65 2.85027 122.65 2.50359C122.65 2.07987 122.688 1.73319 122.804 1.42503C122.919 1.11687 123.035 0.885754 123.228 0.693155C123.42 0.500555 123.613 0.346476 123.844 0.269436C124.075 0.192396 124.345 0.115356 124.614 0.115356C124.73 0.115356 124.884 0.115356 124.999 0.153876C125.115 0.192396 125.231 0.230916 125.346 0.269436C125.462 0.307956 125.539 0.346476 125.616 0.423515C125.693 0.462035 125.77 0.539075 125.808 0.577595C125.847 0.616115 125.885 0.654635 125.885 0.654635C125.885 0.693155 125.924 0.693154 125.924 0.731674C125.924 0.770194 125.924 0.808714 125.924 0.847234C125.924 0.885754 125.924 0.924274 125.924 1.00131C125.924 1.11687 125.924 1.19391 125.885 1.27095C125.847 1.30947 125.808 1.34799 125.77 1.34799C125.731 1.34799 125.654 1.30947 125.616 1.27095C125.539 1.23243 125.462 1.15539 125.385 1.11687C125.308 1.03983 125.192 1.00131 125.038 0.962794C124.922 0.924274 124.73 0.885754 124.576 0.885754C124.191 0.885754 123.921 1.03983 123.728 1.30947C123.536 1.57911 123.42 2.00283 123.42 2.54211C123.42 2.81175 123.459 3.04287 123.497 3.27399C123.536 3.46659 123.613 3.65919 123.728 3.77475C123.844 3.92883 123.959 4.00587 124.114 4.08291C124.268 4.15995 124.422 4.19846 124.614 4.19846C124.807 4.19846 124.961 4.15994 125.077 4.12142C125.192 4.0829 125.346 4.00586 125.423 3.92883C125.539 3.85179 125.616 3.81327 125.654 3.73623C125.731 3.69771 125.77 3.65919 125.808 3.65919C125.847 3.65919 125.847 3.65919 125.847 3.65919C125.847 3.65919 125.885 3.69771 125.885 3.73623C125.885 3.77475 125.885 3.81327 125.924 3.85179C125.924 3.77475 125.885 3.73623 125.924 3.85179Z" fill="white"/>
<path d="M129.892 0.461493C129.892 0.538533 129.892 0.577052 129.892 0.615572C129.892 0.654092 129.892 0.692612 129.853 0.731132C129.853 0.769652 129.815 0.769652 129.815 0.808172C129.815 0.808172 129.776 0.846692 129.738 0.846692H128.467V4.50608C128.467 4.5446 128.467 4.5446 128.467 4.58312C128.467 4.58312 128.428 4.62164 128.39 4.62164C128.351 4.62164 128.313 4.66016 128.274 4.66016C128.236 4.66016 128.158 4.66016 128.081 4.66016C128.004 4.66016 127.927 4.66016 127.889 4.66016C127.85 4.66016 127.812 4.66016 127.773 4.62164C127.735 4.58312 127.735 4.58312 127.696 4.58312C127.696 4.58312 127.696 4.5446 127.696 4.50608V0.846692H126.425C126.387 0.846692 126.387 0.846692 126.348 0.808172C126.31 0.808172 126.31 0.769652 126.31 0.731132C126.31 0.692612 126.271 0.654092 126.271 0.615572C126.271 0.577052 126.271 0.500013 126.271 0.461493C126.271 0.422973 126.271 0.345933 126.271 0.307413C126.271 0.268894 126.271 0.230373 126.31 0.191853C126.31 0.153333 126.348 0.153334 126.348 0.114814C126.348 0.114814 126.387 0.0762939 126.425 0.0762939H129.738C129.776 0.0762939 129.776 0.0762941 129.815 0.114814C129.853 0.114814 129.853 0.153333 129.853 0.191853C129.853 0.230373 129.892 0.268894 129.892 0.307413C129.892 0.384453 129.892 0.422973 129.892 0.461493Z" fill="white"/>
<path d="M132.588 4.58421L132.01 6.125C132.01 6.16352 131.933 6.20204 131.856 6.24056C131.779 6.27908 131.664 6.27908 131.51 6.27908C131.433 6.27908 131.355 6.27908 131.317 6.27908C131.278 6.27908 131.24 6.24056 131.201 6.24056C131.163 6.24056 131.163 6.20204 131.163 6.16352C131.163 6.125 131.163 6.08648 131.201 6.04796L131.779 4.58421C131.741 4.58421 131.741 4.54569 131.702 4.50717C131.664 4.46865 131.664 4.43013 131.664 4.43013L130.161 0.424058C130.123 0.347019 130.123 0.308499 130.123 0.269979C130.123 0.231459 130.123 0.192939 130.161 0.192939C130.2 0.154419 130.238 0.154419 130.277 0.154419C130.315 0.154419 130.393 0.154419 130.508 0.154419C130.624 0.154419 130.662 0.154419 130.739 0.154419C130.778 0.154419 130.816 0.154419 130.855 0.192939C130.893 0.192939 130.893 0.231459 130.932 0.231459C130.932 0.269979 130.97 0.269979 130.97 0.347018L132.164 3.73677L133.32 0.308499C133.32 0.231459 133.359 0.192939 133.397 0.192939C133.436 0.192939 133.474 0.154419 133.513 0.154419C133.551 0.154419 133.628 0.154419 133.744 0.154419C133.821 0.154419 133.898 0.154419 133.975 0.154419C134.013 0.154419 134.09 0.192939 134.09 0.192939C134.129 0.231459 134.129 0.231459 134.129 0.269979C134.129 0.308499 134.129 0.347019 134.09 0.424058L132.588 4.58421Z" fill="white"/>
<path d="M134.707 6.0089C134.707 6.04742 134.707 6.04742 134.707 6.04742L134.668 6.08594C134.668 6.08594 134.591 6.08594 134.553 6.12446C134.514 6.12446 134.476 6.12446 134.399 6.12446C134.322 6.12446 134.283 6.12446 134.245 6.12446C134.206 6.12446 134.168 6.12446 134.129 6.08594C134.091 6.04742 134.091 6.04742 134.091 6.04742V6.0089V4.12143C134.091 4.04439 134.091 4.00587 134.129 3.96735C134.168 3.92883 134.206 3.92883 134.283 3.92883H134.591C134.707 3.77475 134.822 3.62067 134.899 3.42807C135.015 3.23547 135.092 3.00435 135.169 2.73471C135.246 2.46507 135.323 2.11839 135.4 1.73319C135.477 1.34799 135.554 0.885754 135.593 0.346475C135.593 0.307955 135.593 0.269436 135.631 0.230916C135.631 0.192396 135.67 0.153876 135.67 0.153876C135.708 0.115356 135.708 0.115356 135.747 0.115356C135.785 0.115356 135.824 0.115356 135.862 0.115356H138.212C138.289 0.115356 138.328 0.153876 138.405 0.192396C138.443 0.230916 138.482 0.307955 138.482 0.384995V3.92883H139.06C139.137 3.92883 139.175 3.92883 139.214 3.96735C139.252 4.00587 139.252 4.04439 139.252 4.12143V6.0089C139.252 6.04742 139.252 6.04742 139.252 6.04742L139.214 6.08594C139.175 6.08594 139.137 6.08594 139.098 6.12446C139.06 6.12446 139.021 6.12446 138.944 6.12446C138.867 6.12446 138.828 6.12446 138.79 6.12446C138.751 6.12446 138.713 6.12446 138.674 6.08594C138.636 6.08594 138.636 6.04742 138.636 6.04742V6.0089V4.58366H134.822V6.0089H134.707ZM137.634 0.770194H136.286C136.209 1.27095 136.171 1.69467 136.094 2.07987C136.017 2.42655 135.939 2.73471 135.862 2.96583C135.785 3.19695 135.708 3.38955 135.593 3.54363C135.516 3.69771 135.4 3.81327 135.323 3.92883H137.634V0.770194Z" fill="white"/>
<path d="M143.566 2.19489C143.566 2.31045 143.528 2.38749 143.489 2.46453C143.412 2.50305 143.373 2.54157 143.296 2.54157H140.523C140.523 2.77269 140.562 3.0038 140.6 3.15788C140.639 3.35048 140.716 3.50456 140.831 3.65864C140.947 3.81272 141.101 3.88976 141.255 3.9668C141.448 4.04384 141.64 4.08236 141.91 4.08236C142.102 4.08236 142.295 4.08236 142.449 4.04384C142.603 4.00532 142.757 3.9668 142.873 3.92828C142.988 3.88976 143.065 3.85124 143.142 3.81272C143.219 3.7742 143.258 3.7742 143.296 3.7742C143.335 3.7742 143.335 3.7742 143.374 3.7742L143.412 3.81272C143.412 3.85124 143.412 3.85124 143.451 3.88976C143.451 3.92828 143.451 3.9668 143.451 4.04384C143.451 4.08236 143.451 4.12088 143.451 4.1594C143.451 4.19792 143.451 4.19792 143.451 4.23644C143.451 4.27496 143.451 4.27496 143.412 4.31348C143.374 4.352 143.374 4.352 143.374 4.352C143.374 4.352 143.296 4.39052 143.219 4.42904C143.142 4.46756 143.027 4.50608 142.873 4.5446C142.719 4.58312 142.565 4.62164 142.411 4.66016C142.218 4.69868 142.025 4.69868 141.833 4.69868C141.486 4.69868 141.178 4.66016 140.908 4.5446C140.639 4.42904 140.407 4.31348 140.253 4.12088C140.061 3.92828 139.945 3.69716 139.868 3.389C139.791 3.11937 139.714 2.77269 139.714 2.38749C139.714 2.04081 139.753 1.69413 139.868 1.42449C139.945 1.11633 140.099 0.885212 140.292 0.692612C140.485 0.500013 140.677 0.345933 140.947 0.230373C141.216 0.114814 141.486 0.0762939 141.794 0.0762939C142.141 0.0762939 142.411 0.114814 142.642 0.230373C142.873 0.345933 143.065 0.461493 143.219 0.654092C143.374 0.846692 143.489 1.03929 143.566 1.27041C143.643 1.50153 143.682 1.77117 143.682 2.04081V2.19489H143.566ZM142.757 1.96377C142.757 1.54005 142.68 1.23189 142.488 1.00077C142.295 0.769652 142.025 0.654092 141.64 0.654092C141.448 0.654092 141.293 0.692612 141.139 0.769652C140.985 0.846691 140.87 0.923732 140.793 1.03929C140.677 1.15485 140.6 1.30893 140.562 1.46301C140.523 1.61709 140.485 1.77117 140.485 1.96377H142.757Z" fill="white"/>
<path d="M148.458 4.46756C148.458 4.50608 148.458 4.50608 148.458 4.5446C148.458 4.5446 148.42 4.58312 148.381 4.58312C148.343 4.58312 148.304 4.62164 148.265 4.62164C148.227 4.62164 148.15 4.62164 148.073 4.62164C147.996 4.62164 147.919 4.62164 147.88 4.62164C147.842 4.62164 147.803 4.62164 147.765 4.58312C147.726 4.5446 147.726 4.5446 147.688 4.5446C147.688 4.5446 147.688 4.50608 147.688 4.46756V2.61861H145.531V4.46756C145.531 4.50608 145.531 4.50608 145.531 4.5446C145.531 4.5446 145.492 4.58312 145.454 4.58312C145.415 4.58312 145.377 4.62164 145.338 4.62164C145.299 4.62164 145.222 4.62164 145.145 4.62164C145.068 4.62164 144.991 4.62164 144.953 4.62164C144.914 4.62164 144.876 4.62164 144.837 4.58312C144.799 4.58312 144.799 4.5446 144.76 4.5446C144.76 4.5446 144.76 4.50608 144.76 4.46756V0.230373C144.76 0.191853 144.76 0.191853 144.76 0.153333C144.76 0.153333 144.799 0.114814 144.837 0.114814C144.876 0.114814 144.914 0.0762939 144.953 0.0762939C144.991 0.0762939 145.068 0.0762939 145.145 0.0762939C145.222 0.0762939 145.299 0.0762939 145.338 0.0762939C145.377 0.0762939 145.415 0.0762941 145.454 0.114814C145.492 0.114814 145.492 0.153333 145.531 0.153333C145.531 0.153333 145.531 0.191853 145.531 0.230373V1.96377H147.688V0.230373C147.688 0.191853 147.688 0.191853 147.688 0.153333C147.688 0.153333 147.726 0.114814 147.765 0.114814C147.803 0.114814 147.842 0.0762939 147.88 0.0762939C147.919 0.0762939 147.996 0.0762939 148.073 0.0762939C148.15 0.0762939 148.227 0.0762939 148.265 0.0762939C148.304 0.0762939 148.343 0.0762941 148.381 0.114814C148.42 0.114814 148.42 0.153333 148.458 0.153333C148.458 0.153333 148.458 0.191853 148.458 0.230373V4.46756Z" fill="white"/>
<path d="M152.85 0.461493C152.85 0.538533 152.85 0.577052 152.85 0.615572C152.85 0.654092 152.85 0.692612 152.811 0.731132C152.811 0.769652 152.773 0.769652 152.773 0.808172C152.773 0.808172 152.734 0.846692 152.695 0.846692H151.424V4.50608C151.424 4.5446 151.424 4.5446 151.424 4.58312C151.424 4.58312 151.386 4.62164 151.347 4.62164C151.309 4.62164 151.27 4.66016 151.232 4.66016C151.193 4.66016 151.116 4.66016 151.039 4.66016C150.962 4.66016 150.885 4.66016 150.847 4.66016C150.808 4.66016 150.769 4.66016 150.731 4.62164C150.692 4.58312 150.692 4.58312 150.654 4.58312C150.654 4.58312 150.654 4.5446 150.654 4.50608V0.846692H149.383C149.344 0.846692 149.344 0.846692 149.306 0.808172C149.267 0.808172 149.267 0.769652 149.267 0.731132C149.267 0.692612 149.229 0.654092 149.229 0.615572C149.229 0.577052 149.229 0.500013 149.229 0.461493C149.229 0.422973 149.229 0.345933 149.229 0.307413C149.229 0.268894 149.229 0.230373 149.267 0.191853C149.267 0.153333 149.306 0.153334 149.306 0.114814C149.306 0.114814 149.344 0.0762939 149.383 0.0762939H152.695C152.734 0.0762939 152.734 0.0762941 152.773 0.114814C152.811 0.114814 152.811 0.153333 152.811 0.191853C152.811 0.230373 152.85 0.268894 152.85 0.307413C152.85 0.384453 152.85 0.422973 152.85 0.461493Z" fill="white"/>
<path d="M157.433 2.31119C157.433 2.65787 157.395 2.96603 157.279 3.27419C157.202 3.58235 157.048 3.81347 156.856 4.00607C156.663 4.19867 156.432 4.39127 156.162 4.50683C155.893 4.62239 155.584 4.69943 155.238 4.69943C154.891 4.69943 154.583 4.66091 154.313 4.54535C154.044 4.42979 153.851 4.27571 153.658 4.08311C153.504 3.89051 153.35 3.65939 153.273 3.35123C153.196 3.08159 153.158 2.73491 153.158 2.38823C153.158 2.04155 153.196 1.7334 153.273 1.42524C153.35 1.11708 153.504 0.885958 153.658 0.693359C153.851 0.500759 154.082 0.308159 154.352 0.192599C154.621 0.0770398 154.93 0 155.315 0C155.662 0 155.97 0.0385197 156.239 0.154079C156.509 0.269639 156.702 0.423719 156.894 0.616319C157.087 0.808918 157.202 1.04004 157.279 1.3482C157.356 1.65636 157.433 1.96451 157.433 2.31119ZM156.625 2.38823C156.625 2.15711 156.586 1.92599 156.547 1.7334C156.509 1.5408 156.432 1.3482 156.355 1.19412C156.239 1.04004 156.124 0.924478 155.97 0.847438C155.816 0.770398 155.584 0.731878 155.353 0.731878C155.122 0.731878 154.93 0.770398 154.776 0.847438C154.621 0.924478 154.467 1.04004 154.352 1.19412C154.236 1.3482 154.159 1.50228 154.121 1.7334C154.082 1.92599 154.044 2.15711 154.044 2.38823C154.044 2.61935 154.082 2.85047 154.121 3.04307C154.159 3.23567 154.236 3.42827 154.352 3.58235C154.467 3.73643 154.583 3.85199 154.737 3.92903C154.891 4.00607 155.122 4.04459 155.353 4.04459C155.584 4.04459 155.777 4.00607 155.931 3.92903C156.085 3.85199 156.239 3.73643 156.355 3.58235C156.47 3.42827 156.547 3.27419 156.586 3.04307C156.586 2.85047 156.625 2.61935 156.625 2.38823Z" fill="white"/>
<path d="M162.056 3.27473C162.056 3.50585 162.017 3.69845 161.94 3.85253C161.863 4.04513 161.748 4.16069 161.555 4.27625C161.401 4.39181 161.17 4.46885 160.939 4.54589C160.707 4.62293 160.399 4.62293 160.091 4.62293C159.976 4.62293 159.899 4.62293 159.783 4.62293C159.667 4.62293 159.59 4.62293 159.513 4.62293C159.436 4.62293 159.321 4.62293 159.244 4.62293C159.167 4.62293 159.051 4.62293 158.974 4.58441C158.859 4.58441 158.743 4.54589 158.704 4.46885C158.627 4.39181 158.627 4.31477 158.627 4.16069V0.501302C158.627 0.385742 158.666 0.270182 158.704 0.193142C158.781 0.116102 158.859 0.0775825 158.974 0.0775825C159.051 0.0775825 159.128 0.0775824 159.244 0.0390625C159.321 0.0390625 159.436 0.0390625 159.513 0.0390625C159.629 0.0390625 159.706 0.0390625 159.822 0.0390625C159.937 0.0390625 160.014 0.0390625 160.13 0.0390625C160.438 0.0390625 160.707 0.0775827 160.939 0.116103C161.17 0.154622 161.362 0.231662 161.478 0.347221C161.632 0.462781 161.748 0.578341 161.786 0.693901C161.863 0.847981 161.902 1.00206 161.902 1.19466C161.902 1.42578 161.825 1.61838 161.709 1.81098C161.593 1.96506 161.401 2.11914 161.131 2.15766C161.439 2.2347 161.67 2.35026 161.825 2.54286C161.979 2.73546 162.056 2.96658 162.056 3.27473ZM161.131 1.31022C161.131 1.19466 161.131 1.11762 161.093 1.04058C161.054 0.96354 160.977 0.8865 160.9 0.84798C160.823 0.809461 160.707 0.73242 160.553 0.73242C160.399 0.6939 160.245 0.693901 160.053 0.693901C159.899 0.693901 159.783 0.693901 159.667 0.693901C159.552 0.693901 159.436 0.6939 159.359 0.73242V2.0421H160.168C160.476 2.0421 160.746 1.96506 160.9 1.8495C161.016 1.69542 161.131 1.54134 161.131 1.31022ZM161.247 3.27473C161.247 3.15917 161.208 3.04361 161.17 2.92805C161.131 2.85101 161.054 2.73546 160.977 2.69694C160.9 2.6199 160.746 2.58138 160.592 2.54286C160.438 2.50434 160.284 2.50434 160.053 2.50434H159.282V4.00661C159.359 4.00661 159.398 4.00661 159.475 4.04513C159.552 4.04513 159.59 4.04513 159.667 4.04513C159.744 4.04513 159.783 4.04513 159.86 4.04513C159.937 4.04513 159.976 4.04513 160.053 4.04513C160.245 4.04513 160.438 4.04513 160.592 4.00661C160.746 3.96809 160.862 3.92957 160.939 3.85253C161.016 3.77549 161.093 3.69845 161.131 3.58289C161.247 3.50585 161.247 3.39029 161.247 3.27473Z" fill="white"/>
<path fill-rule="evenodd" clip-rule="evenodd" d="M36.0955 33.9358C35.3251 33.7818 34.7859 33.4351 34.4007 32.395C36.9044 31.2395 39.3312 29.1979 39.9475 26.4245C39.1771 26.2319 38.2526 26.2704 37.8674 25.5385C35.98 22.2643 35.3251 17.8345 33.8614 14.1751C33.168 14.0596 32.0509 14.4063 31.7428 13.9055C31.5502 14.8685 31.5117 15.9856 31.0879 16.6789C30.5872 16.4863 29.9709 16.3708 29.3931 16.2937C29.3931 15.6389 29.3931 14.9841 29.3931 14.3292C28.353 14.3292 27.2745 14.3292 26.2344 14.3292C26.3115 18.3738 25.6952 22.8421 26.35 26.3089C20.6105 27.6571 23.7692 18.4508 23.3069 14.3292C22.3054 14.3292 21.3039 14.3292 20.2639 14.3292C20.1098 15.1381 20.0327 16.0241 19.7246 16.7175C19.2238 16.4863 18.4149 16.5634 17.9912 16.1782C18.0297 15.1767 17.8756 13.944 18.1067 13.1351C21.3039 11.1321 28.1219 11.3632 31.5502 13.0195C32.5517 12.1336 34.131 11.5173 35.7489 11.6713C36.9044 12.8269 37.4822 15.5619 38.2141 17.7575C38.7919 19.9916 39.5623 22.1488 40.3327 24.2288C40.6794 22.7266 41.2572 19.8376 41.8735 17.0256C42.4513 14.3292 42.9906 12.018 43.9921 11.7099C45.0321 11.7869 45.6099 12.0565 45.9566 12.7499C43.4528 19.9146 43.5299 29.6601 37.7904 33.5892C37.2126 33.8973 36.6348 34.0514 36.0955 33.9358Z" fill="white"/>
<path fill-rule="evenodd" clip-rule="evenodd" d="M60.5173 23.7671C61.2877 23.8056 62.6359 23.8826 63.1751 24.1137C63.3292 26.2323 62.5203 29.5065 62.2122 30.6621C61.4032 30.508 60.9025 30.5851 60.3632 30.2769C60.3632 28.7746 60.3632 27.3879 60.3632 25.9242C57.5127 26.656 52.8133 26.5405 49.9243 26.0782C49.9243 27.3109 49.6932 29.0443 49.1539 30.7392C48.4991 30.5466 47.8057 30.5466 47.1509 30.3154C47.1509 28.1968 47.1509 26.0782 47.1509 23.9982C51.0799 23.3819 50.8103 18.2587 51.3881 14.3297C50.8488 14.2912 50.1169 14.3297 49.5006 14.2912C49.2695 13.9445 49.385 13.2511 49.1154 12.9815C51.5421 11.5948 57.3201 11.094 59.4002 13.097C60.6328 15.3697 60.1321 20.1847 60.5173 23.7671ZM53.8919 14.1756C53.5067 17.5654 53.5452 21.6099 51.9273 23.7671C53.8148 23.7671 55.7023 23.7671 57.5898 23.7671C57.4357 20.7625 57.6283 17.4498 57.2046 14.4452C56.1645 14.2912 55.1245 14.1371 53.8919 14.1756Z" fill="white"/>
<path fill-rule="evenodd" clip-rule="evenodd" d="M11.4428 3.8905C5.8959 3.8905 -0.57544 8.16621 0.0408787 16.3324C0.657197 24.229 7.55226 27.041 12.2902 26.3091C15.9496 25.7313 17.3363 23.5742 17.3363 23.5742C17.3363 23.5742 16.9896 22.7267 16.6815 22.226C12.5213 24.6527 5.00994 24.1905 3.66175 16.9102C2.35207 9.93813 7.66782 5.54686 14.1777 6.81801C14.1777 7.89657 14.1777 9.05217 14.1777 9.05217L16.1422 9.43737C16.1422 9.43737 16.5659 7.70397 16.797 5.89354C15.9496 4.96906 14.3703 3.8905 11.4428 3.8905Z" fill="white"/>
<path fill-rule="evenodd" clip-rule="evenodd" d="M76.1946 22.8814C74.076 24.037 68.4521 25.077 67.6047 19.8383C66.7187 14.33 72.15 13.444 74.5768 14.4455C74.5768 15.3315 74.5768 16.41 74.5768 16.41C74.5768 16.41 75.7709 16.6026 76.5798 16.5256C76.7339 15.5626 77.1576 13.8677 77.0806 13.1358C72.5352 9.93869 64.0608 12.2114 64.6386 19.9924C65.2164 27.7734 74.2301 27.6193 77.0806 24.2296C76.6954 23.6132 76.3872 23.151 76.1946 22.8814Z" fill="white"/>
<path fill-rule="evenodd" clip-rule="evenodd" d="M81.8955 21.0328C82.8971 20.9943 87.2498 20.6476 89.7536 19.2609C92.6041 17.6815 92.0263 14.1762 90.601 13.0977C86.3639 9.70793 78.0436 12.5584 78.5058 19.9157C78.968 27.6197 88.0972 27.5426 90.9477 24.1529C90.5625 23.5751 90.2544 23.1128 90.0232 22.8432C88.0972 23.8832 83.2437 25.0388 81.8955 21.0328ZM87.558 14.677C88.7136 15.2163 88.7906 15.9482 88.8291 16.1793C88.8676 16.4104 88.675 16.9882 88.1743 17.3349C86.9802 18.1823 84.746 18.7986 81.5874 18.9527C81.5489 14.9081 85.7475 13.8296 87.558 14.677Z" fill="white"/>
<path fill-rule="evenodd" clip-rule="evenodd" d="M121.686 18.1438C122.495 18.5676 123.15 19.0683 123.612 19.7617C124.113 20.455 124.653 21.8032 123.612 23.7292C122.611 25.3085 120.916 26.1945 118.605 26.4256C116.409 26.5797 114.175 26.6953 112.788 25.8093C111.44 23.6137 112.442 17.9898 112.365 14.4845C111.517 14.4845 110.785 14.4845 110.208 14.4845C110.208 14.1763 110.092 13.5215 109.976 13.1748C114.483 11.4799 124.691 10.0161 123.189 16.4875C122.996 17.0653 122.572 17.7586 121.686 18.1438ZM115.177 17.8742C116.371 17.6046 118.181 17.6046 119.529 17.7586C121.841 14.7926 118.682 13.5215 115.292 14.4459C115.215 15.6786 115.215 16.603 115.177 17.8742ZM115.1 19.6846C115.061 20.9943 115.023 22.1884 114.984 23.4211C117.449 23.8063 121.532 23.8063 120.955 21.1869C120.338 19.3765 117.411 19.4535 115.1 19.6846Z" fill="white"/>
<path fill-rule="evenodd" clip-rule="evenodd" d="M131.086 12.6351C131.124 15.6396 130.854 19.0679 130.777 22.265C131.355 21.225 132.896 18.4901 134.398 16.0248C135.631 13.9833 136.863 12.0573 137.788 11.6721C138.404 11.5565 139.521 11.9032 139.984 12.2113C140.407 13.6366 139.521 20.185 139.714 23.9599C140.253 23.9599 141.139 23.9599 141.948 23.9599C141.948 24.4607 142.141 24.9229 142.218 25.4237C140.793 26.117 138.674 27.1185 136.979 26.1555C136.671 23.074 137.172 19.0679 137.249 15.7552C135.092 19.3375 133.281 23.3051 130.662 26.4252C129.583 26.7333 128.543 26.3867 128.042 25.7703C127.542 22.265 128.235 18.259 128.158 14.4455C127.349 14.4455 126.579 14.4455 125.77 14.4455C125.731 14.1373 125.616 13.521 125.5 13.1358C126.502 12.6351 128.158 11.6721 129.622 11.6335C130.123 11.6335 131.086 11.7876 131.086 12.6351Z" fill="white"/>
<path d="M153.735 30.354C147.726 30.354 142.872 25.462 142.872 19.4914C142.872 13.4823 147.764 8.62878 153.735 8.62878C159.744 8.62878 164.597 13.5208 164.597 19.4914C164.597 25.462 159.705 30.354 153.735 30.354ZM153.735 9.47622C148.227 9.47622 143.72 13.983 143.72 19.4914C143.72 24.9997 148.188 29.5066 153.735 29.5066C159.243 29.5066 163.75 25.0383 163.75 19.4914C163.712 13.9445 159.243 9.47622 153.735 9.47622Z" fill="white"/>
<path fill-rule="evenodd" clip-rule="evenodd" d="M101.04 11.826C99.9613 12.0571 99.1524 12.4808 98.5361 13.1357C97.8042 10.2852 93.9522 12.3268 92.7196 13.1357C92.8352 13.4824 92.9507 13.9061 92.9892 14.4453C93.7982 14.4453 94.9152 14.4453 95.339 14.4453C95.339 14.9076 94.7226 32.0875 94.7226 32.0875L94.6841 32.8964C94.6456 33.3586 95.1464 34.2446 96.5331 33.9364C97.9198 33.6668 100.231 32.7423 100.347 32.6267C100.154 32.0104 100.077 31.163 100.077 31.163C100.077 31.163 98.8057 31.163 97.7272 31.163L97.9198 25.5776C99.3835 26.5791 102.234 26.5791 104.121 25.9243C109.977 23.8827 109.822 10.0156 101.04 11.826ZM102.889 23.2664C101.618 23.8442 99.7687 23.8827 98.0353 23.4975C98.0353 23.4205 97.9968 23.3434 97.9968 23.3049L98.2665 14.9846C100.115 14.0601 103.12 14.0987 104.083 15.7935C105.47 17.7966 105.123 22.2649 102.889 23.2664Z" fill="white"/>
<path fill-rule="evenodd" clip-rule="evenodd" d="M158.242 22.8814C156.123 24.037 150.5 25.077 149.652 19.8383C148.766 14.33 154.197 13.444 156.663 14.4455C156.663 15.3315 156.663 16.41 156.663 16.41C156.663 16.41 157.857 16.6026 158.666 16.5256C158.82 15.5626 159.244 13.8677 159.167 13.1358C154.621 9.93869 146.147 12.2114 146.725 19.9924C147.302 27.7734 156.316 27.6193 159.167 24.2296C158.781 23.6132 158.473 23.151 158.242 22.8814Z" fill="white"/>
</svg>
