<svg width="59" height="88" viewBox="0 0 59 88" fill="none" xmlns="http://www.w3.org/2000/svg">
<path d="M48.6357 46.7329C46.9733 46.4002 45.3033 46.6495 43.8687 47.1126C42.3484 47.6241 41.0634 48.3494 39.8641 49.0263C38.6648 49.7032 37.3799 50.4285 36.1806 51.1054C33.6964 52.5075 31.2121 53.9097 28.8135 55.2635C26.415 56.6174 23.9881 57.5249 21.7835 57.0362C19.6287 56.6348 17.6104 54.8853 16.2915 52.9722C15.0084 50.9234 14.3249 48.5361 13.9483 46.0911C13.5718 43.6461 13.5021 41.1435 13.3966 38.7765C13.2912 36.4096 13.3711 34.1692 13.501 32.016C14.0704 23.491 15.5087 17.4797 16.7033 13.2235C17.719 9.6461 18.5483 7.32931 19.0632 5.65215C19.2129 5.9143 19.2769 6.2248 19.3767 6.39957C19.804 7.54487 20.2315 8.69016 20.6589 9.83546C21.4638 12.0387 22.119 13.9798 22.8457 15.6494C24.1637 18.9495 25.0401 20.8813 25.4326 20.7753C25.8252 20.6692 25.5983 18.4864 24.8442 14.9835C24.4243 13.2563 23.9405 11.2185 23.3069 8.91856C23.015 7.81229 22.6234 6.53126 22.196 5.38596C21.9823 4.81331 21.7187 4.15327 21.4552 3.49323C21.2556 3.1437 21.1916 2.83319 20.992 2.48366C20.6427 1.87198 20.3434 1.34769 19.787 0.968441C19.3803 0.851341 19.0594 0.68589 18.7026 0.656174L18.0888 0.771513L17.5249 0.974236L17.3037 0.983551L17.1324 1.08026L16.8754 1.22531C16.7041 1.32201 16.4828 1.33133 16.3115 1.42803C15.9689 1.62143 15.662 1.6791 15.3193 1.8725C14.6698 2.12358 14.0701 2.46204 13.4705 2.80049C12.2712 3.4774 11.1576 4.10596 10.1296 4.68617C8.03793 5.98233 6.20322 7.13343 4.6754 8.22686C1.61976 10.4137 -0.150921 11.8753 0.184208 12.2639C0.38378 12.6134 2.50372 11.7635 5.85872 10.1009C7.53622 9.26965 9.47072 8.29332 11.6622 7.17194C12.7401 6.67911 13.8537 6.05055 15.0172 5.50937C15.5312 5.21927 16.095 5.01656 16.6947 4.6781C15.9087 6.27719 14.8581 8.60331 13.7069 12.1417C12.341 16.4945 10.6956 22.7383 10.1545 31.7096C10.0745 33.9501 9.95873 36.3263 10.0284 38.8289C10.0981 41.3316 10.2177 43.9216 10.6583 46.6771C11.0989 49.4326 11.8605 52.3535 13.6284 55.0531C14.5124 56.4028 15.6034 57.5202 16.8658 58.5408C18.2138 59.5131 19.6833 60.3013 21.4314 60.5856C23.0939 60.9183 24.8994 60.708 26.4197 60.1966C27.94 59.6851 29.3605 58.9989 30.5598 58.322C32.9942 56.8324 35.4784 55.4302 37.9128 53.9407C39.112 53.2637 40.3471 52.4511 41.5464 51.7742C42.7457 51.0973 43.8593 50.4687 45.0727 50.0149C46.2005 49.6095 47.3423 49.4272 48.3769 49.652C49.4971 49.8286 50.51 50.4123 51.3158 51.2285C53.0988 52.7641 54.3104 55.0844 55.0296 57.336C55.7489 59.5875 56.2111 61.9842 56.4879 64.2544C57.0415 68.7948 56.9031 72.9169 56.5012 76.379C55.6475 83.2159 53.9465 87.1801 54.2675 87.3455C54.4031 87.3846 54.9246 86.5125 55.6965 84.6903C56.3827 82.9164 57.3193 80.1924 57.9424 76.721C58.5656 73.2496 58.9609 68.9824 58.5288 64.2579C58.4083 63.0549 58.2877 61.852 58.0317 60.6099C57.9112 59.407 57.6052 58.0776 57.2136 56.7966C56.4303 54.2345 55.2404 51.5553 53.0225 49.4564C51.7319 47.9895 50.2982 47.0655 48.6357 46.7329Z" fill="#1775FF"/>
</svg>
